<svg xmlns="http://www.w3.org/2000/svg" width="224" height="36" viewBox="0 0 224 36" role="img" aria-label="DEV.to  ·  7,648 followers">
  <title>DEV.to  ·  7,648 followers</title>
  <polygon points="9,0 215,0 215,3 218,3 218,6 221,6 221,30 218,30 218,33 215,33 215,36 9,36 9,33 6,33 6,30 3,30 3,6 6,6 6,3 9,3" fill="#7caa4a" shape-rendering="crispEdges"/>
  <polygon points="9,3 215,3 215,6 218,6 218,30 215,30 215,33 9,33 9,30 6,30 6,6 9,6" fill="#000000" shape-rendering="crispEdges"/>
  <text
    x="112"
    y="18.5"
    fill="#7caa4a"
    font-family="system-ui,-apple-system,'Segoe UI',sans-serif"
    font-size="13"
    font-weight="700"
    text-anchor="middle"
    dominant-baseline="middle"
  >DEV.to  ·  7,648 followers</text>
</svg>
